<svg width="717" height="780" viewBox="0 0 717 780" fill="none" xmlns="http://www.w3.org/2000/svg">
<path d="M60.3069 278C19.9069 209.2 43.4736 69.3333 60.3069 8L739.807 -93L804.307 178.5L765.807 779.5C687.14 780.5 511.707 773 439.307 735C348.807 687.5 389.807 611 314.807 571C239.807 531 282.807 425.5 256.807 385.5C230.807 345.5 110.807 364 60.3069 278Z" fill="#FFF1DA"/>
<path d="M580.174 350.847C578.816 351.151 577.493 351.715 576.287 352.502C573.147 354.504 571.319 357.36 572.206 358.883C573.093 360.405 576.358 360.015 579.499 358.014C580.721 357.255 581.806 356.284 582.688 355.162C583.098 354.62 583.171 353.944 582.876 353.439L581.724 351.462C581.431 350.955 580.823 350.714 580.174 350.847Z" fill="#D5D6DB"/>
<path d="M572.287 323.854C571.303 324.075 570.343 324.484 569.469 325.055C567.192 326.506 565.866 328.577 566.509 329.68C567.151 330.783 569.52 330.5 571.797 329.049C572.682 328.498 573.469 327.794 574.109 326.98C574.406 326.587 574.459 326.098 574.245 325.732L573.41 324.3C573.198 323.933 572.758 323.758 572.287 323.854Z" fill="#D5D6DB"/>
<path d="M559.473 324.985C559.254 324.96 559.02 325.019 558.817 325.148L553.469 328.556C553.022 328.84 552.843 329.388 553.07 329.779C553.122 329.869 553.193 329.945 553.279 330.004L566.461 339.089L584.294 327.724L559.473 324.985Z" fill="#029BC5"/>
<path d="M615.85 323.7L567.318 354.252L538.605 365.677L523.962 368.588L522.351 365.851L603.246 315.904C605.657 314.409 608.343 313.492 611.032 313.245C612.209 313.143 613.372 313.182 614.493 313.361C615.487 313.512 616.43 313.802 617.294 314.224C618.258 314.703 620.092 314.758 620.687 315.711C620.689 315.709 622.091 320.084 615.85 323.7Z" fill="#E1E6E9"/>
<path d="M567.961 350.209L546.966 383.679C546.704 384.15 546.86 384.676 547.314 384.855C547.592 384.965 547.933 384.922 548.219 384.74L553.563 381.35C554.591 380.697 555.501 379.869 556.238 378.915L596.954 331.046L567.961 350.209Z" fill="#029BC5"/>
<path d="M514.982 349.092C514.632 348.972 514.215 349.034 513.863 349.258L509.446 352.072C508.844 352.455 508.604 353.191 508.91 353.717C508.968 353.817 509.044 353.905 509.134 353.977L521.511 363.89L534.524 355.762L514.982 349.092Z" fill="#029BC5"/>
<path d="M525.659 365.677L518.998 375.006C518.9 375.14 518.923 375.308 519.049 375.382C519.14 375.435 519.264 375.425 519.365 375.358L523.493 372.742C523.525 372.721 523.554 372.696 523.578 372.667L533.312 360.832L525.659 365.677Z" fill="#029BC5"/>
<path d="M613.697 313.763C612.542 313.578 611.344 313.538 610.132 313.645C608.951 315.296 608.196 317.151 607.943 319.024C607.924 319.4 608.227 319.671 608.62 319.629C608.742 319.616 608.864 319.573 608.973 319.504L616.581 314.66C615.692 314.221 614.72 313.919 613.697 313.763Z" fill="#029BC5"/>
<path d="M597.117 322.671L602.084 319.534L606.711 327.403L601.744 330.54L597.117 322.671Z" fill="#D5D6DB"/>
<path d="M593.992 325.783C593.394 326.163 593.154 326.891 593.458 327.411L593.95 328.253C594.274 328.76 595.014 328.849 595.602 328.452C596.162 328.074 596.387 327.387 596.117 326.88L595.625 326.038C595.321 325.519 594.591 325.405 593.992 325.783Z" fill="#3A556A"/>
<path d="M589.528 328.556C588.929 328.935 588.69 329.664 588.994 330.184L589.486 331.026C589.81 331.532 590.549 331.621 591.137 331.224C591.697 330.847 591.923 330.16 591.653 329.653L591.161 328.811C590.857 328.292 590.126 328.178 589.528 328.556Z" fill="#3A556A"/>
<path d="M585.062 331.329C584.464 331.709 584.226 332.437 584.529 332.956L585.021 333.798C585.345 334.304 586.085 334.394 586.673 333.997C587.233 333.619 587.458 332.932 587.188 332.425L586.696 331.583C586.392 331.064 585.661 330.95 585.062 331.329Z" fill="#3A556A"/>
<path d="M580.597 334.102C580 334.481 579.761 335.209 580.065 335.728L580.557 336.57C580.881 337.077 581.62 337.166 582.209 336.769C582.768 336.391 582.994 335.705 582.724 335.198L582.232 334.356C581.928 333.836 581.196 333.722 580.597 334.102Z" fill="#3A556A"/>
<path d="M576.133 336.874C575.535 337.254 575.297 337.982 575.601 338.502L576.093 339.344C576.397 339.863 577.128 339.977 577.726 339.598C578.325 339.219 578.564 338.491 578.26 337.972L577.767 337.129C577.465 336.61 576.734 336.495 576.135 336.874C576.134 336.874 576.134 336.874 576.133 336.874Z" fill="#3A556A"/>
<path d="M571.669 339.647C571.071 340.027 570.832 340.755 571.136 341.274L571.629 342.117C571.932 342.636 572.664 342.75 573.262 342.371C573.86 341.992 574.099 341.263 573.796 340.744L573.303 339.902C573 339.382 572.269 339.268 571.67 339.646C571.67 339.646 571.669 339.647 571.669 339.647Z" fill="#3A556A"/>
<path d="M567.205 342.419C566.606 342.799 566.368 343.527 566.672 344.047L567.164 344.889C567.469 345.408 568.2 345.52 568.798 345.141C569.395 344.762 569.633 344.035 569.331 343.517L568.838 342.675C568.535 342.155 567.803 342.041 567.205 342.419Z" fill="#3A556A"/>
<path d="M562.74 345.192C562.142 345.572 561.903 346.3 562.207 346.819L562.7 347.662C563.004 348.18 563.736 348.293 564.333 347.914C564.93 347.535 565.168 346.808 564.866 346.289L564.374 345.447C564.07 344.927 563.339 344.813 562.74 345.192Z" fill="#3A556A"/>
<path d="M558.276 347.964C557.677 348.344 557.439 349.072 557.743 349.592L558.235 350.434C558.54 350.953 559.271 351.065 559.869 350.686C560.466 350.307 560.704 349.58 560.402 349.062L559.909 348.219C559.605 347.7 558.874 347.586 558.276 347.964Z" fill="#3A556A"/>
<path d="M553.81 350.737C553.211 351.116 552.972 351.845 553.276 352.364L553.277 352.365L553.769 353.207C554.074 353.726 554.805 353.839 555.403 353.459C556 353.08 556.238 352.354 555.936 351.835L555.443 350.993C555.14 350.473 554.409 350.359 553.81 350.737Z" fill="#3A556A"/>
<path d="M549.347 353.509C548.748 353.888 548.509 354.616 548.813 355.136L548.814 355.137L549.306 355.979C549.611 356.498 550.342 356.61 550.94 356.231C551.537 355.852 551.775 355.125 551.473 354.607L550.98 353.764C550.677 353.245 549.945 353.131 549.347 353.509Z" fill="#3A556A"/>
<path d="M96.1744 303.847C94.816 304.151 93.493 304.715 92.2875 305.502C89.1467 307.504 87.3194 310.36 88.2063 311.883C89.0933 313.405 92.3583 313.015 95.4991 311.014C96.7209 310.255 97.8063 309.284 98.6884 308.162C99.0978 307.62 99.1713 306.944 98.8761 306.439L97.7239 304.462C97.4307 303.955 96.8226 303.714 96.1744 303.847Z" fill="#D5D6DB"/>
<path d="M88.2873 276.854C87.3024 277.075 86.343 277.484 85.4687 278.055C83.1919 279.506 81.8661 281.577 82.5087 282.68C83.1513 283.782 85.5198 283.5 87.7964 282.049C88.6823 281.498 89.4692 280.794 90.109 279.98C90.4055 279.587 90.4586 279.098 90.2446 278.732L89.4103 277.3C89.1981 276.933 88.7574 276.758 88.2873 276.854Z" fill="#D5D6DB"/>
<path d="M75.4733 277.985C75.254 277.96 75.0202 278.018 74.8174 278.148L69.4693 281.556C69.0219 281.84 68.8429 282.388 69.0698 282.779C69.1217 282.869 69.1927 282.945 69.279 283.004L82.4606 292.089L100.294 280.724L75.4733 277.985Z" fill="#029BC5"/>
<path d="M131.85 276.7L83.3181 307.252L54.6054 318.677L39.9623 321.588L38.3513 318.851L119.246 268.904C121.657 267.409 124.343 266.492 127.032 266.245C128.209 266.143 129.372 266.182 130.493 266.361C131.487 266.512 132.43 266.802 133.294 267.224C134.258 267.703 136.092 267.758 136.687 268.711C136.689 268.709 138.091 273.083 131.85 276.7Z" fill="#E1E6E9"/>
<path d="M83.9615 303.209L62.9662 336.679C62.704 337.15 62.8597 337.676 63.3135 337.855C63.5921 337.965 63.933 337.922 64.2194 337.74L69.5634 334.35C70.5913 333.697 71.5014 332.869 72.2375 331.915L112.954 284.046L83.9615 303.209Z" fill="#029BC5"/>
<path d="M30.9819 302.092C30.6317 301.972 30.2149 302.034 29.8631 302.258L25.4456 305.072C24.8437 305.455 24.6038 306.191 24.9097 306.717C24.9679 306.817 25.0436 306.905 25.1344 306.977L37.5111 316.89L50.5241 308.762L30.9819 302.092Z" fill="#029BC5"/>
<path d="M41.6596 318.677L34.9981 328.006C34.9004 328.14 34.9234 328.308 35.0494 328.382C35.1402 328.435 35.2642 328.425 35.365 328.358L39.4932 325.742C39.5253 325.721 39.5543 325.696 39.5783 325.667L49.3119 313.832L41.6596 318.677Z" fill="#029BC5"/>
<path d="M129.697 266.763C128.542 266.578 127.345 266.538 126.132 266.645C124.951 268.296 124.196 270.151 123.943 272.024C123.924 272.4 124.228 272.671 124.62 272.629C124.743 272.616 124.864 272.573 124.973 272.504L132.581 267.66C131.692 267.221 130.72 266.919 129.697 266.763Z" fill="#029BC5"/>
<path d="M113.117 275.671L118.084 272.534L122.711 280.403L117.744 283.54L113.117 275.671Z" fill="#D5D6DB"/>
<path d="M109.992 278.783C109.393 279.163 109.154 279.891 109.458 280.411L109.95 281.253C110.274 281.76 111.013 281.849 111.602 281.452C112.162 281.074 112.387 280.387 112.117 279.88L111.625 279.038C111.321 278.519 110.59 278.405 109.992 278.783Z" fill="#3A556A"/>
<path d="M105.528 281.556C104.929 281.935 104.69 282.664 104.994 283.184L105.486 284.026C105.81 284.532 106.549 284.621 107.137 284.224C107.697 283.847 107.923 283.16 107.653 282.653L107.161 281.811C106.857 281.292 106.126 281.178 105.528 281.556Z" fill="#3A556A"/>
<path d="M101.062 284.329C100.464 284.709 100.225 285.437 100.529 285.956L101.021 286.798C101.345 287.304 102.084 287.394 102.673 286.997C103.233 286.619 103.458 285.932 103.188 285.425L102.696 284.583C102.392 284.064 101.66 283.95 101.062 284.329Z" fill="#3A556A"/>
<path d="M96.5973 287.102C95.9994 287.481 95.7611 288.209 96.0647 288.728L96.557 289.57C96.8808 290.077 97.6201 290.166 98.2084 289.769C98.7682 289.391 98.9937 288.705 98.7239 288.198L98.2316 287.356C97.9274 286.836 97.1959 286.722 96.5973 287.102Z" fill="#3A556A"/>
<path d="M92.1334 289.874C91.5351 290.254 91.2966 290.982 91.6004 291.502L92.093 292.344C92.3967 292.863 93.1279 292.977 93.7263 292.598C94.3247 292.219 94.5636 291.491 94.2599 290.972L93.7673 290.129C93.4644 289.61 92.7334 289.495 92.1346 289.874C92.1341 289.874 92.1339 289.874 92.1334 289.874Z" fill="#3A556A"/>
<path d="M87.669 292.647C87.0708 293.027 86.8323 293.755 87.1361 294.274L87.6287 295.117C87.9323 295.636 88.6636 295.75 89.2619 295.371C89.8603 294.992 90.0992 294.263 89.7956 293.744L89.303 292.902C89 292.382 88.269 292.268 87.6703 292.646C87.6698 292.646 87.6693 292.647 87.669 292.647Z" fill="#3A556A"/>
<path d="M83.2044 295.419C82.6062 295.799 82.3677 296.527 82.6714 297.047L83.164 297.889C83.4685 298.408 84.2001 298.52 84.7978 298.141C85.3945 297.762 85.6329 297.035 85.3306 296.517L84.838 295.675C84.5345 295.155 83.8033 295.041 83.2044 295.419Z" fill="#3A556A"/>
<path d="M78.7398 298.192C78.1416 298.572 77.9031 299.3 78.2068 299.819L78.6994 300.662C79.0039 301.18 79.7355 301.293 80.3332 300.914C80.9299 300.535 81.1683 299.808 80.866 299.289L80.3734 298.447C80.0699 297.927 79.3387 297.813 78.7398 298.192Z" fill="#3A556A"/>
<path d="M74.2756 300.964C73.6773 301.344 73.4388 302.072 73.7426 302.592L74.2352 303.434C74.5396 303.953 75.2712 304.065 75.869 303.686C76.4657 303.307 76.7041 302.58 76.4018 302.062L75.9092 301.219C75.6054 300.7 74.8742 300.586 74.2756 300.964Z" fill="#3A556A"/>
<path d="M69.8097 303.737C69.2114 304.116 68.9725 304.845 69.2762 305.364L69.2768 305.365L69.7694 306.207C70.0738 306.726 70.8054 306.839 71.4031 306.459C71.9999 306.08 72.2382 305.354 71.936 304.835L71.4434 303.993C71.1399 303.473 70.4086 303.359 69.8097 303.737Z" fill="#3A556A"/>
<path d="M65.3465 306.509C64.7481 306.888 64.5092 307.616 64.8129 308.136L64.8135 308.137L65.3061 308.979C65.6106 309.498 66.3422 309.61 66.9399 309.231C67.5366 308.852 67.775 308.125 67.4728 307.607L66.9802 306.764C66.6764 306.245 65.9451 306.131 65.3465 306.509Z" fill="#3A556A"/>
</svg>
